Coordinates
version=1
nRows=21
nColumns=12
inDegrees=yes

Units are S.I. units (second, meters, Newtons, ...)
Angles are in degrees

endheader
time	SC_y	SC_z	SC_x	AC_y	AC_z	AC_x	GH_y	GH_z	GH_yy	EL_x	PS_y
       0.0              -38.71          10.18          66.82          57.02         -9.204          11.92          59.58        -0.5762         -127.0          87.92          70.31
   0.02739              -38.71          10.19          66.82          57.02         -9.204          11.92          59.56        -0.5787         -127.0          87.92          70.32
   0.05478              -38.71          10.19          66.82          57.02         -9.204          11.92          59.54        -0.5814         -127.0          87.92          70.32
   0.08217              -38.71          10.19          66.81          57.03         -9.204          11.92          59.53        -0.5842         -127.0          87.92          70.32
    0.1096              -38.72          10.19          66.81          57.03         -9.204          11.92          59.51        -0.5873         -127.0          87.91          70.32
    0.1369              -38.72          10.19          66.81          57.03         -9.205          11.92          59.49        -0.5905         -127.0          87.91          70.32
    0.1643              -38.72          10.19           66.8          57.03         -9.205          11.92          59.47        -0.5939         -127.0          87.91          70.33
    0.1917              -38.72          10.19           66.8          57.03         -9.205          11.93          59.44        -0.5976         -127.0          87.91          70.33
    0.2191              -38.73          10.19          66.79          57.03         -9.205          11.93          59.42        -0.6016         -127.0           87.9          70.33
    0.2465              -38.73          10.19          66.79          57.03         -9.205          11.93          59.39        -0.6058         -126.9           87.9          70.33
    0.2739              -38.73          10.19          66.78          57.03         -9.206          11.93          59.36        -0.6104         -126.9           87.9          70.34
    0.3013              -38.74           10.2          66.78          57.03         -9.206          11.93          59.33        -0.6153         -126.9           87.9          70.34
    0.3287              -38.74           10.2          66.77          57.03         -9.206          11.93           59.3        -0.6206         -126.9          87.89          70.34
    0.3561              -38.75           10.2          66.76          57.03         -9.207          11.94          59.27        -0.6263         -126.9          87.89          70.35
    0.3834              -38.75           10.2          66.76          57.03         -9.207          11.94          59.23        -0.6324         -126.9          87.88          70.35
    0.4108              -38.76           10.2          66.75          57.03         -9.207          11.94          59.19        -0.6391         -126.9          87.88          70.35
    0.4382              -38.76           10.2          66.74          57.03         -9.208          11.94          59.14        -0.6464         -126.9          87.88          70.36
    0.4656              -38.77          10.21          66.73          57.04         -9.208          11.95          59.09        -0.6543         -126.8          87.87          70.36
     0.493              -38.78          10.21          66.72          57.04         -9.209          11.95          59.04         -0.663         -126.8          87.86          70.37
    0.5204              -38.78          10.21          66.71          57.04         -9.209          11.95          58.98        -0.6725         -126.8          87.86          70.37
    0.5478              -38.79          10.21          66.69          57.04          -9.21          11.96          58.92        -0.6829         -126.8          87.85          70.38
